<mxfile host="app.diagrams.net" modified="2023-06-26T16:23:50.712Z" agent="Mozilla/5.0 (Windows NT 10.0; Win64; x64) AppleWebKit/537.36 (KHTML, like Gecko) Chrome/110.0.0.0 Safari/537.36" etag="hBTw_F07-0X4ufRVuJrC" version="21.5.0" type="device">
  <diagram name="PÃ¡gina-1" id="vIhdIsjhR6K27RRLK8-8">
    <mxGraphModel dx="733" dy="445" grid="1" gridSize="10" guides="1" tooltips="1" connect="1" arrows="1" fold="1" page="1" pageScale="1" pageWidth="827" pageHeight="1169" math="0" shadow="0">
      <root>
        <mxCell id="0" />
        <mxCell id="1" parent="0" />
        <mxCell id="dwULxPrDhceKkE7e1Upt-6" value="" style="edgeStyle=orthogonalEdgeStyle;rounded=0;orthogonalLoop=1;jettySize=auto;html=1;" parent="1" source="BX6Ynhh1-3dR2pI9bZZJ-3" target="BX6Ynhh1-3dR2pI9bZZJ-32" edge="1">
          <mxGeometry relative="1" as="geometry" />
        </mxCell>
        <mxCell id="dwULxPrDhceKkE7e1Upt-7" value="" style="edgeStyle=orthogonalEdgeStyle;rounded=0;orthogonalLoop=1;jettySize=auto;html=1;" parent="1" source="BX6Ynhh1-3dR2pI9bZZJ-3" target="BX6Ynhh1-3dR2pI9bZZJ-23" edge="1">
          <mxGeometry relative="1" as="geometry" />
        </mxCell>
        <mxCell id="dwULxPrDhceKkE7e1Upt-10" style="edgeStyle=orthogonalEdgeStyle;rounded=0;orthogonalLoop=1;jettySize=auto;html=1;" parent="1" source="BX6Ynhh1-3dR2pI9bZZJ-3" target="dwULxPrDhceKkE7e1Upt-8" edge="1">
          <mxGeometry relative="1" as="geometry" />
        </mxCell>
        <mxCell id="BX6Ynhh1-3dR2pI9bZZJ-3" value="vendedor" style="shape=umlActor;verticalLabelPosition=bottom;verticalAlign=top;html=1;outlineConnect=0;" parent="1" vertex="1">
          <mxGeometry x="470" y="260" width="30" height="60" as="geometry" />
        </mxCell>
        <mxCell id="dwULxPrDhceKkE7e1Upt-12" style="edgeStyle=orthogonalEdgeStyle;rounded=0;orthogonalLoop=1;jettySize=auto;html=1;entryX=1;entryY=0.5;entryDx=0;entryDy=0;" parent="1" source="BX6Ynhh1-3dR2pI9bZZJ-6" target="BX6Ynhh1-3dR2pI9bZZJ-39" edge="1">
          <mxGeometry relative="1" as="geometry">
            <Array as="points">
              <mxPoint x="665" y="470" />
            </Array>
          </mxGeometry>
        </mxCell>
        <mxCell id="BX6Ynhh1-3dR2pI9bZZJ-6" value="administrador&amp;nbsp;" style="shape=umlActor;verticalLabelPosition=bottom;verticalAlign=top;html=1;outlineConnect=0;" parent="1" vertex="1">
          <mxGeometry x="650" y="360" width="30" height="60" as="geometry" />
        </mxCell>
        <mxCell id="dwULxPrDhceKkE7e1Upt-11" style="edgeStyle=orthogonalEdgeStyle;rounded=0;orthogonalLoop=1;jettySize=auto;html=1;" parent="1" source="BX6Ynhh1-3dR2pI9bZZJ-23" target="BX6Ynhh1-3dR2pI9bZZJ-6" edge="1">
          <mxGeometry relative="1" as="geometry" />
        </mxCell>
        <mxCell id="BX6Ynhh1-3dR2pI9bZZJ-23" value="enviar pedido" style="ellipse;whiteSpace=wrap;html=1;" parent="1" vertex="1">
          <mxGeometry x="350" y="350" width="120" height="80" as="geometry" />
        </mxCell>
        <mxCell id="BX6Ynhh1-3dR2pI9bZZJ-35" style="edgeStyle=orthogonalEdgeStyle;rounded=0;orthogonalLoop=1;jettySize=auto;html=1;" parent="1" source="BX6Ynhh1-3dR2pI9bZZJ-29" target="BX6Ynhh1-3dR2pI9bZZJ-32" edge="1">
          <mxGeometry relative="1" as="geometry">
            <Array as="points">
              <mxPoint x="320" y="150" />
            </Array>
          </mxGeometry>
        </mxCell>
        <mxCell id="BX6Ynhh1-3dR2pI9bZZJ-29" value="compra producto&amp;nbsp;" style="ellipse;whiteSpace=wrap;html=1;" parent="1" vertex="1">
          <mxGeometry x="210" y="140" width="120" height="80" as="geometry" />
        </mxCell>
        <mxCell id="BX6Ynhh1-3dR2pI9bZZJ-32" value="guardar info" style="ellipse;whiteSpace=wrap;html=1;" parent="1" vertex="1">
          <mxGeometry x="425" y="130" width="120" height="80" as="geometry" />
        </mxCell>
        <mxCell id="dwULxPrDhceKkE7e1Upt-1" style="edgeStyle=orthogonalEdgeStyle;rounded=0;orthogonalLoop=1;jettySize=auto;html=1;" parent="1" source="BX6Ynhh1-3dR2pI9bZZJ-39" target="BX6Ynhh1-3dR2pI9bZZJ-17" edge="1">
          <mxGeometry relative="1" as="geometry">
            <mxPoint x="-60" y="170" as="targetPoint" />
            <Array as="points">
              <mxPoint x="80" y="470" />
              <mxPoint x="80" y="180" />
            </Array>
          </mxGeometry>
        </mxCell>
        <mxCell id="BX6Ynhh1-3dR2pI9bZZJ-39" value="informa sobre la compra" style="ellipse;whiteSpace=wrap;html=1;" parent="1" vertex="1">
          <mxGeometry x="230" y="430" width="120" height="80" as="geometry" />
        </mxCell>
        <mxCell id="dwULxPrDhceKkE7e1Upt-8" value="modifica BD" style="ellipse;whiteSpace=wrap;html=1;" parent="1" vertex="1">
          <mxGeometry x="280" y="250" width="120" height="80" as="geometry" />
        </mxCell>
        <mxCell id="dwULxPrDhceKkE7e1Upt-14" style="edgeStyle=orthogonalEdgeStyle;rounded=0;orthogonalLoop=1;jettySize=auto;html=1;entryX=0;entryY=0.5;entryDx=0;entryDy=0;" parent="1" source="BX6Ynhh1-3dR2pI9bZZJ-17" target="BX6Ynhh1-3dR2pI9bZZJ-29" edge="1">
          <mxGeometry relative="1" as="geometry" />
        </mxCell>
        <mxCell id="BX6Ynhh1-3dR2pI9bZZJ-17" value="kiosco" style="shape=umlActor;verticalLabelPosition=bottom;verticalAlign=top;html=1;outlineConnect=0;" parent="1" vertex="1">
          <mxGeometry x="120" y="140" width="40" height="60" as="geometry" />
        </mxCell>
      </root>
    </mxGraphModel>
  </diagram>
</mxfile>
